# xmcd CD database file
#
# Track frame offsets:
#	150
#	16456
#	32237
#
# Disc length: 621 seconds
#
# Revision: 0
# Processed by: cddbd v1.5.2PL0 Copyright (c) Steve Scherf et al.
# Submitted via: CDex 1.70beta2
#
DISCID=1d026b03
DTITLE=TOSHIKO AKIYOSHI  MONDAY MICHIRU - HOPE
DYEAR=2006
DGENRE=Jazz
TTITLE0=HOPE
TTITLE1=HOPE (English Version)
TTITLE2=HOPE (from Album[HOPE])
EXTD=YEAR: 2006
EXTT0=
EXTT1=
EXTT2=
PLAYORDER=
